<?xml version="1.0" encoding="UTF-8"?>
<!DOCTYPE svg PUBLIC "-//W3C//DTD SVG 1.1//EN" "http://www.w3.org/Graphics/SVG/1.1/DTD/svg11.dtd">
<svg xmlns="http://www.w3.org/2000/svg" version="1.1" width="1022px" height="795px" style="shape-rendering:geometricPrecision; text-rendering:geometricPrecision; image-rendering:optimizeQuality; fill-rule:evenodd; clip-rule:evenodd" xmlns:xlink="http://www.w3.org/1999/xlink">
<g><path style="opacity:1" fill="#fdfdfd" d="M -0.5,-0.5 C 340.167,-0.5 680.833,-0.5 1021.5,-0.5C 1021.5,264.5 1021.5,529.5 1021.5,794.5C 680.833,794.5 340.167,794.5 -0.5,794.5C -0.5,529.5 -0.5,264.5 -0.5,-0.5 Z"/></g>
<g><path style="opacity:1" fill="#cd4a48" d="M 543.5,13.5 C 531.166,13.2667 518.832,12.9333 506.5,12.5C 494.071,12.3763 481.738,13.3763 469.5,15.5C 467.218,14.7766 464.884,14.4433 462.5,14.5C 477.757,12.1308 493.257,11.1308 509,11.5C 520.708,11.301 532.208,11.9677 543.5,13.5 Z"/></g>
<g><path style="opacity:1" fill="#d8363d" d="M 543.5,13.5 C 679.347,29.5864 780.847,96.9197 848,215.5C 866.588,249.766 879.088,286.099 885.5,324.5C 888.464,361.652 889.298,398.985 888,436.5C 887.312,431.398 886.479,431.564 885.5,437C 886.592,442.126 886.759,447.293 886,452.5C 885.667,451.5 885.333,450.5 885,449.5C 883.764,460.879 882.264,472.212 880.5,483.5C 869.231,532.018 848.898,576.018 819.5,615.5C 789.064,600.689 758.731,585.689 728.5,570.5C 726.142,569.02 723.809,567.353 721.5,565.5C 720.311,564.571 718.978,564.238 717.5,564.5C 717.333,528.498 717.5,492.498 718,456.5C 719.18,450.865 721.013,445.532 723.5,440.5C 727.814,438.605 732.147,436.772 736.5,435C 738.7,432.766 740.533,430.266 742,427.5C 743.842,419.261 745.175,410.928 746,402.5C 750.716,391.808 754.383,380.808 757,369.5C 757.667,362.833 757.667,356.167 757,349.5C 751.818,341.007 744.318,338.173 734.5,341C 729.53,344.745 727.53,343.245 728.5,336.5C 730.301,310.318 732.301,284.151 734.5,258C 734.073,253.159 733.573,248.326 733,243.5C 714.43,192.612 695.597,141.946 676.5,91.5C 674.162,122.553 671.329,153.553 668,184.5C 663.644,178.652 659.144,172.986 654.5,167.5C 654.813,163.958 654.479,160.625 653.5,157.5C 644.567,120.756 634.567,84.4228 623.5,48.5C 623.736,45.7743 622.903,43.441 621,41.5C 618.85,50.4 617.35,59.4 616.5,68.5C 615.555,73.114 614.888,77.7807 614.5,82.5C 612.679,89.953 611.346,97.6197 610.5,105.5C 610.5,106.167 610.5,106.833 610.5,107.5C 609.143,113.31 608.143,119.31 607.5,125.5C 606.793,128.786 606.46,132.119 606.5,135.5C 593.688,128.234 580.688,121.067 567.5,114C 557.03,110.121 546.363,106.954 535.5,104.5C 532.851,102.891 529.851,102.057 526.5,102C 513.788,101.814 501.121,101.314 488.5,100.5C 487.304,100.846 487.304,101.346 488.5,102C 485.826,102.67 483.493,103.837 481.5,105.5C 476.151,107.172 470.818,108.839 465.5,110.5C 464.069,110.119 463.236,109.119 463,107.5C 461.909,94.9532 459.742,82.6199 456.5,70.5C 448.713,88.1949 441.713,106.195 435.5,124.5C 429.29,129.098 422.956,133.431 416.5,137.5C 416.5,136.5 416.5,135.5 416.5,134.5C 413.017,116.077 409.683,97.7434 406.5,79.5C 405.793,76.2139 405.46,72.8806 405.5,69.5C 404.001,59.8612 402.501,50.1945 401,40.5C 399.268,43.9692 398.102,47.6359 397.5,51.5C 389.946,78.1545 382.613,104.821 375.5,131.5C 374.076,133.515 373.41,135.848 373.5,138.5C 372.151,144.265 370.484,149.931 368.5,155.5C 367.152,165.873 367.486,176.207 369.5,186.5C 369.812,209.047 371.145,231.38 373.5,253.5C 373.5,258.833 373.5,264.167 373.5,269.5C 370.337,267.754 367.004,266.254 363.5,265C 357.074,263.35 351.574,264.85 347,269.5C 345.128,272.205 344.295,275.205 344.5,278.5C 348.938,294.392 353.104,310.392 357,326.5C 359.989,343.031 361.655,359.697 362,376.5C 364.047,380.048 366.88,382.715 370.5,384.5C 373.625,385.479 376.958,385.813 380.5,385.5C 380.652,391.699 381.318,397.699 382.5,403.5C 383.152,445.386 382.486,487.053 380.5,528.5C 355.909,540.461 331.243,552.461 306.5,564.5C 298.491,568.184 290.491,571.85 282.5,575.5C 260.316,585.994 238.316,596.66 216.5,607.5C 211.145,609.839 205.811,612.172 200.5,614.5C 135.707,521.373 114.874,419.04 138,307.5C 166.06,197.492 229.227,114.326 327.5,58C 369.772,34.9645 414.772,20.4645 462.5,14.5C 464.884,14.4433 467.218,14.7766 469.5,15.5C 481.738,13.3763 494.071,12.3763 506.5,12.5C 518.832,12.9333 531.166,13.2667 543.5,13.5 Z"/></g>
<g><path style="opacity:1" fill="#46272c" d="M 405.5,69.5 C 404.59,67.9812 403.757,66.3146 403,64.5C 402.697,60.106 402.03,55.7727 401,51.5C 400.014,50.8288 398.847,50.8288 397.5,51.5C 398.102,47.6359 399.268,43.9692 401,40.5C 402.501,50.1945 404.001,59.8612 405.5,69.5 Z"/></g>
<g><path style="opacity:1" fill="#3a1619" d="M 623.5,48.5 C 622.5,48.5 621.5,48.5 620.5,48.5C 620.01,55.4646 618.677,62.1312 616.5,68.5C 617.35,59.4 618.85,50.4 621,41.5C 622.903,43.441 623.736,45.7743 623.5,48.5 Z"/></g>
<g><path style="opacity:1" fill="#27282c" d="M 405.5,69.5 C 405.46,72.8806 405.793,76.2139 406.5,79.5C 406.334,85.5092 406.501,91.5092 407,97.5C 407.199,99.4025 408.033,100.902 409.5,102C 408.919,102.893 408.585,103.893 408.5,105C 411.665,112.501 413.165,120.335 413,128.5C 414.459,130.432 415.625,132.432 416.5,134.5C 416.5,135.5 416.5,136.5 416.5,137.5C 422.956,133.431 429.29,129.098 435.5,124.5C 443.534,119.979 451.867,116.313 460.5,113.5C 467.808,111.271 475.141,109.105 482.5,107C 489.211,105.185 495.711,105.018 502,106.5C 504.195,103.963 507.028,102.963 510.5,103.5C 509.836,204.839 510.502,305.839 512.5,406.5C 511.791,407.404 510.791,407.737 509.5,407.5C 476.459,388.979 443.125,370.979 409.5,353.5C 409.44,352.957 409.107,352.624 408.5,352.5C 407.5,394.161 407.167,435.828 407.5,477.5C 401.463,477.171 395.463,477.504 389.5,478.5C 391.673,481.068 394.006,483.401 396.5,485.5C 395.244,485.461 394.244,485.961 393.5,487C 412.442,507.267 430.608,528.1 448,549.5C 455.513,556.713 462.679,564.213 469.5,572C 474.874,574.039 479.041,577.539 482,582.5C 482.333,582.167 482.667,581.833 483,581.5C 483.624,584.274 485.124,586.274 487.5,587.5C 496.271,605.475 504.271,623.809 511.5,642.5C 479.604,630.883 447.937,618.717 416.5,606C 374.496,605.833 332.496,605.333 290.5,604.5C 296.415,591.346 301.748,578.013 306.5,564.5C 331.243,552.461 355.909,540.461 380.5,528.5C 381.5,528.5 382.5,528.5 383.5,528.5C 383.832,486.663 383.499,444.997 382.5,403.5C 382.823,396.978 382.49,390.645 381.5,384.5C 379.803,346.044 377.136,307.71 373.5,269.5C 373.5,264.167 373.5,258.833 373.5,253.5C 372.567,230.991 371.234,208.658 369.5,186.5C 369.208,176.165 368.875,165.832 368.5,155.5C 370.484,149.931 372.151,144.265 373.5,138.5C 374.924,136.485 375.59,134.152 375.5,131.5C 382.613,104.821 389.946,78.1545 397.5,51.5C 398.847,50.8288 400.014,50.8288 401,51.5C 402.03,55.7727 402.697,60.106 403,64.5C 403.757,66.3146 404.59,67.9812 405.5,69.5 Z"/></g>
<g><path style="opacity:1" fill="#17171d" d="M 623.5,48.5 C 634.567,84.4228 644.567,120.756 653.5,157.5C 653.552,166.518 653.218,175.518 652.5,184.5C 650.956,189.919 650.123,195.586 650,201.5C 649.667,198.833 649.333,196.167 649,193.5C 648.691,194.766 648.191,195.933 647.5,197C 648.159,204.924 648.493,212.924 648.5,221C 648.257,237.526 647.591,254.026 646.5,270.5C 644.795,298.496 642.962,326.496 641,354.5C 640.5,364.161 640.334,373.828 640.5,383.5C 639.765,391.029 638.932,398.696 638,406.5C 637.5,446.832 637.333,487.165 637.5,527.5C 636.833,511.328 636.167,494.995 635.5,478.5C 628.224,477.535 620.891,477.201 613.5,477.5C 613.5,476.5 613.5,475.5 613.5,474.5C 614.831,433.998 614.831,393.331 613.5,352.5C 612.893,352.624 612.56,352.957 612.5,353.5C 604.5,358.167 596.5,362.833 588.5,367.5C 563.167,380.5 537.833,393.5 512.5,406.5C 510.502,305.839 509.836,204.839 510.5,103.5C 515.5,103.5 520.5,103.5 525.5,103.5C 528.86,103.616 532.193,103.949 535.5,104.5C 546.363,106.954 557.03,110.121 567.5,114C 580.688,121.067 593.688,128.234 606.5,135.5C 606.46,132.119 606.793,128.786 607.5,125.5C 608.222,125.082 608.722,124.416 609,123.5C 609.83,118.192 610.33,112.859 610.5,107.5C 610.5,106.833 610.5,106.167 610.5,105.5C 613.217,98.2023 614.551,90.5357 614.5,82.5C 614.888,77.7807 615.555,73.114 616.5,68.5C 618.677,62.1312 620.01,55.4646 620.5,48.5C 621.5,48.5 622.5,48.5 623.5,48.5 Z"/></g>
<g><path style="opacity:1" fill="#a72932" d="M 465.5,110.5 C 463.739,111.313 462.072,112.313 460.5,113.5C 451.867,116.313 443.534,119.979 435.5,124.5C 441.713,106.195 448.713,88.1949 456.5,70.5C 459.742,82.6199 461.909,94.9532 463,107.5C 463.236,109.119 464.069,110.119 465.5,110.5 Z"/></g>
<g><path style="opacity:1" fill="#43171e" d="M 614.5,82.5 C 614.551,90.5357 613.217,98.2023 610.5,105.5C 611.346,97.6197 612.679,89.953 614.5,82.5 Z"/></g>
<g><path style="opacity:1" fill="#382528" d="M 406.5,79.5 C 409.683,97.7434 413.017,116.077 416.5,134.5C 415.625,132.432 414.459,130.432 413,128.5C 413.165,120.335 411.665,112.501 408.5,105C 408.585,103.893 408.919,102.893 409.5,102C 408.033,100.902 407.199,99.4025 407,97.5C 406.501,91.5092 406.334,85.5092 406.5,79.5 Z"/></g>
<g><path style="opacity:1" fill="#a62833" d="M 728.5,570.5 C 726.421,570.029 724.421,569.363 722.5,568.5C 709.501,561.334 696.167,554.667 682.5,548.5C 675.816,543.824 668.483,540.49 660.5,538.5C 652.625,535.422 644.959,531.755 637.5,527.5C 637.333,487.165 637.5,446.832 638,406.5C 638.932,398.696 639.765,391.029 640.5,383.5C 648.073,386.23 654.24,384.23 659,377.5C 659.883,361.428 661.549,345.428 664,329.5C 667.895,312.153 672.395,294.986 677.5,278C 675.231,266.443 668.231,262.11 656.5,265C 653.757,267.038 650.757,268.538 647.5,269.5C 648.729,249.48 650.062,229.48 651.5,209.5C 653.149,195.695 654.149,181.695 654.5,167.5C 659.144,172.986 663.644,178.652 668,184.5C 671.329,153.553 674.162,122.553 676.5,91.5C 695.597,141.946 714.43,192.612 733,243.5C 733.573,248.326 734.073,253.159 734.5,258C 732.301,284.151 730.301,310.318 728.5,336.5C 727.53,343.245 729.53,344.745 734.5,341C 744.318,338.173 751.818,341.007 757,349.5C 757.667,356.167 757.667,362.833 757,369.5C 754.383,380.808 750.716,391.808 746,402.5C 745.175,410.928 743.842,419.261 742,427.5C 740.533,430.266 738.7,432.766 736.5,435C 732.147,436.772 727.814,438.605 723.5,440.5C 721.013,445.532 719.18,450.865 718,456.5C 717.5,492.498 717.333,528.498 717.5,564.5C 718.978,564.238 720.311,564.571 721.5,565.5C 723.809,567.353 726.142,569.02 728.5,570.5 Z"/></g>
<g><path style="opacity:1" fill="#c23b42" d="M 535.5,104.5 C 532.193,103.949 528.86,103.616 525.5,103.5C 510.869,101.845 496.202,102.512 481.5,105.5C 483.493,103.837 485.826,102.67 488.5,102C 487.304,101.346 487.304,100.846 488.5,100.5C 501.121,101.314 513.788,101.814 526.5,102C 529.851,102.057 532.851,102.891 535.5,104.5 Z"/></g>
<g><path style="opacity:1" fill="#362126" d="M 525.5,103.5 C 520.5,103.5 515.5,103.5 510.5,103.5C 507.028,102.963 504.195,103.963 502,106.5C 495.711,105.018 489.211,105.185 482.5,107C 475.141,109.105 467.808,111.271 460.5,113.5C 462.072,112.313 463.739,111.313 465.5,110.5C 470.818,108.839 476.151,107.172 481.5,105.5C 496.202,102.512 510.869,101.845 525.5,103.5 Z"/></g>
<g><path style="opacity:1" fill="#47181e" d="M 610.5,107.5 C 610.33,112.859 609.83,118.192 609,123.5C 608.722,124.416 608.222,125.082 607.5,125.5C 608.143,119.31 609.143,113.31 610.5,107.5 Z"/></g>
<g><path style="opacity:1" fill="#65272c" d="M 375.5,131.5 C 375.59,134.152 374.924,136.485 373.5,138.5C 373.41,135.848 374.076,133.515 375.5,131.5 Z"/></g>
<g><path style="opacity:1" fill="#a8363b" d="M 368.5,155.5 C 368.875,165.832 369.208,176.165 369.5,186.5C 367.486,176.207 367.152,165.873 368.5,155.5 Z"/></g>
<g><path style="opacity:1" fill="#8d2e38" d="M 653.5,157.5 C 654.479,160.625 654.813,163.958 654.5,167.5C 654.149,181.695 653.149,195.695 651.5,209.5C 651.543,201.152 651.876,192.819 652.5,184.5C 653.218,175.518 653.552,166.518 653.5,157.5 Z"/></g>
<g><path style="opacity:1" fill="#2c1419" d="M 652.5,184.5 C 651.876,192.819 651.543,201.152 651.5,209.5C 650.062,229.48 648.729,249.48 647.5,269.5C 647.5,270.167 647.167,270.5 646.5,270.5C 647.591,254.026 648.257,237.526 648.5,221C 648.493,212.924 648.159,204.924 647.5,197C 648.191,195.933 648.691,194.766 649,193.5C 649.333,196.167 649.667,198.833 650,201.5C 650.123,195.586 650.956,189.919 652.5,184.5 Z"/></g>
<g><path style="opacity:1" fill="#a13539" d="M 369.5,186.5 C 371.234,208.658 372.567,230.991 373.5,253.5C 371.145,231.38 369.812,209.047 369.5,186.5 Z"/></g>
<g><path style="opacity:1" fill="#fafbfb" d="M 626.5,259.5 C 627.725,260.152 628.392,261.319 628.5,263C 626.154,279.375 620.654,294.542 612,308.5C 603.667,318.734 592.834,324.234 579.5,325C 559.919,325.38 542.252,319.713 526.5,308C 559.985,292.09 593.318,275.924 626.5,259.5 Z"/></g>
<g><path style="opacity:1" fill="#fafafb" d="M 392.5,258.5 C 426.869,275.018 461.202,291.518 495.5,308C 483.39,315.888 470.39,321.888 456.5,326C 434.088,328.044 416.921,319.544 405,300.5C 397.895,287.355 393.729,273.355 392.5,258.5 Z"/></g>
<g><path style="opacity:1" fill="#bfc8c6" d="M 373.5,269.5 C 377.136,307.71 379.803,346.044 381.5,384.5C 377.833,384.5 374.167,384.5 370.5,384.5C 366.88,382.715 364.047,380.048 362,376.5C 361.655,359.697 359.989,343.031 357,326.5C 353.104,310.392 348.938,294.392 344.5,278.5C 344.295,275.205 345.128,272.205 347,269.5C 351.574,264.85 357.074,263.35 363.5,265C 367.004,266.254 370.337,267.754 373.5,269.5 Z"/></g>
<g><path style="opacity:1" fill="#8c9494" d="M 640.5,383.5 C 640.334,373.828 640.5,364.161 641,354.5C 642.962,326.496 644.795,298.496 646.5,270.5C 647.167,270.5 647.5,270.167 647.5,269.5C 650.757,268.538 653.757,267.038 656.5,265C 668.231,262.11 675.231,266.443 677.5,278C 672.395,294.986 667.895,312.153 664,329.5C 661.549,345.428 659.883,361.428 659,377.5C 654.24,384.23 648.073,386.23 640.5,383.5 Z"/></g>
<g><path style="opacity:1" fill="#bdc9c6" d="M 409.5,353.5 C 443.125,370.979 476.459,388.979 509.5,407.5C 515.371,413.204 520.704,419.371 525.5,426C 522.183,426.498 518.85,426.665 515.5,426.5C 496.17,423.667 478.17,427.167 461.5,437C 460.304,437.654 460.304,438.154 461.5,438.5C 470.487,436.002 479.654,434.669 489,434.5C 507.499,435.432 525.999,435.599 544.5,435C 550.925,436.012 557.258,437.012 563.5,438C 553.256,431.085 541.923,427.252 529.5,426.5C 549.473,407.194 569.14,387.527 588.5,367.5C 596.5,362.833 604.5,358.167 612.5,353.5C 613.499,393.663 613.832,433.997 613.5,474.5C 613.5,475.5 613.5,476.5 613.5,477.5C 593.664,493.833 573.664,509.999 553.5,526C 525.167,526.667 496.833,526.667 468.5,526C 448.312,509.969 428.312,493.803 408.5,477.5C 408.168,435.997 408.501,394.663 409.5,353.5 Z"/></g>
<g><path style="opacity:1" fill="#cb3a3f" d="M 885.5,324.5 C 888.554,337.52 890.387,350.853 891,364.5C 893.157,398.76 891.157,432.76 885,466.5C 884.093,472.442 882.593,478.108 880.5,483.5C 882.264,472.212 883.764,460.879 885,449.5C 885.333,450.5 885.667,451.5 886,452.5C 886.759,447.293 886.592,442.126 885.5,437C 886.479,431.564 887.312,431.398 888,436.5C 889.298,398.985 888.464,361.652 885.5,324.5 Z"/></g>
<g><path style="opacity:1" fill="#a9b0af" d="M 409.5,353.5 C 408.501,394.663 408.168,435.997 408.5,477.5C 408.167,477.5 407.833,477.5 407.5,477.5C 407.167,435.828 407.5,394.161 408.5,352.5C 409.107,352.624 409.44,352.957 409.5,353.5 Z"/></g>
<g><path style="opacity:1" fill="#848e8e" d="M 588.5,367.5 C 569.14,387.527 549.473,407.194 529.5,426.5C 524.833,427.833 520.167,427.833 515.5,426.5C 518.85,426.665 522.183,426.498 525.5,426C 520.704,419.371 515.371,413.204 509.5,407.5C 510.791,407.737 511.791,407.404 512.5,406.5C 537.833,393.5 563.167,380.5 588.5,367.5 Z"/></g>
<g><path style="opacity:1" fill="#b33e3e" d="M 370.5,384.5 C 374.167,384.5 377.833,384.5 381.5,384.5C 382.49,390.645 382.823,396.978 382.5,403.5C 381.318,397.699 380.652,391.699 380.5,385.5C 376.958,385.813 373.625,385.479 370.5,384.5 Z"/></g>
<g><path style="opacity:1" fill="#53595d" d="M 612.5,353.5 C 612.56,352.957 612.893,352.624 613.5,352.5C 614.831,393.331 614.831,433.998 613.5,474.5C 613.832,433.997 613.499,393.663 612.5,353.5 Z"/></g>
<g><path style="opacity:1" fill="#6d7979" d="M 515.5,426.5 C 520.167,427.833 524.833,427.833 529.5,426.5C 541.923,427.252 553.256,431.085 563.5,438C 557.258,437.012 550.925,436.012 544.5,435C 525.999,435.599 507.499,435.432 489,434.5C 479.654,434.669 470.487,436.002 461.5,438.5C 460.304,438.154 460.304,437.654 461.5,437C 478.17,427.167 496.17,423.667 515.5,426.5 Z"/></g>
<g><path style="opacity:1" fill="#697676" d="M 498.5,454.5 C 525.318,451.275 548.318,458.942 567.5,477.5C 567.333,477.833 567.167,478.167 567,478.5C 540.809,465.379 513.309,461.879 484.5,468C 475.854,469.938 467.521,472.771 459.5,476.5C 459.167,476.333 458.833,476.167 458.5,476C 469.773,464.866 483.106,457.699 498.5,454.5 Z"/></g>
<g><path style="opacity:1" fill="#c43f40" d="M 382.5,403.5 C 383.499,444.997 383.832,486.663 383.5,528.5C 382.5,528.5 381.5,528.5 380.5,528.5C 382.486,487.053 383.152,445.386 382.5,403.5 Z"/></g>
<g><path style="opacity:1" fill="#677172" d="M 407.5,477.5 C 407.833,477.5 408.167,477.5 408.5,477.5C 428.312,493.803 448.312,509.969 468.5,526C 496.833,526.667 525.167,526.667 553.5,526C 573.664,509.999 593.664,493.833 613.5,477.5C 619.346,478.167 625.346,478.833 631.5,479.5C 606.481,500.19 581.481,520.856 556.5,541.5C 526.167,541.5 495.833,541.5 465.5,541.5C 442.683,522.594 419.683,503.927 396.5,485.5C 394.006,483.401 391.673,481.068 389.5,478.5C 395.463,477.504 401.463,477.171 407.5,477.5 Z"/></g>
<g><path style="opacity:1" fill="#222428" d="M 613.5,477.5 C 620.891,477.201 628.224,477.535 635.5,478.5C 636.167,494.995 636.833,511.328 637.5,527.5C 644.959,531.755 652.625,535.422 660.5,538.5C 667.486,542.322 674.819,545.655 682.5,548.5C 696.167,554.667 709.501,561.334 722.5,568.5C 725.423,580.78 728.089,593.113 730.5,605.5C 689.499,605.333 648.499,605.5 607.5,606C 576.328,618.667 544.995,630.833 513.5,642.5C 528.03,608.908 542.363,575.241 556.5,541.5C 581.481,520.856 606.481,500.19 631.5,479.5C 625.346,478.833 619.346,478.167 613.5,477.5 Z"/></g>
<g><path style="opacity:1" fill="#1f2125" d="M 396.5,485.5 C 419.683,503.927 442.683,522.594 465.5,541.5C 472.793,556.757 480.127,572.09 487.5,587.5C 485.124,586.274 483.624,584.274 483,581.5C 482.667,581.833 482.333,582.167 482,582.5C 479.041,577.539 474.874,574.039 469.5,572C 462.679,564.213 455.513,556.713 448,549.5C 430.608,528.1 412.442,507.267 393.5,487C 394.244,485.961 395.244,485.461 396.5,485.5 Z"/></g>
<g><path style="opacity:1" fill="#882c35" d="M 660.5,538.5 C 668.483,540.49 675.816,543.824 682.5,548.5C 674.819,545.655 667.486,542.322 660.5,538.5 Z"/></g>
<g><path style="opacity:1" fill="#17161c" d="M 465.5,541.5 C 495.833,541.5 526.167,541.5 556.5,541.5C 542.363,575.241 528.03,608.908 513.5,642.5C 512.833,643.833 512.167,643.833 511.5,642.5C 504.271,623.809 496.271,605.475 487.5,587.5C 480.127,572.09 472.793,556.757 465.5,541.5 Z"/></g>
<g><path style="opacity:1" fill="#393c3f" d="M 306.5,564.5 C 301.748,578.013 296.415,591.346 290.5,604.5C 332.496,605.333 374.496,605.833 416.5,606C 447.937,618.717 479.604,630.883 511.5,642.5C 512.167,643.833 512.833,643.833 513.5,642.5C 544.995,630.833 576.328,618.667 607.5,606C 648.499,605.5 689.499,605.333 730.5,605.5C 728.089,593.113 725.423,580.78 722.5,568.5C 724.421,569.363 726.421,570.029 728.5,570.5C 758.731,585.689 789.064,600.689 819.5,615.5C 764.031,692.111 690.031,741.611 597.5,764C 469.909,790.436 356.576,761.77 257.5,678C 236.156,658.829 217.156,637.662 200.5,614.5C 205.811,612.172 211.145,609.839 216.5,607.5C 224.7,606.739 232.366,604.239 239.5,600C 238.833,599.667 238.167,599.333 237.5,599C 243.832,598.669 248.832,596.003 252.5,591C 255.224,590.73 257.891,590.23 260.5,589.5C 261.086,589.709 261.586,590.043 262,590.5C 262.833,589 264,587.833 265.5,587C 270.574,585.806 274.574,583.139 277.5,579C 279.134,578.506 280.801,578.34 282.5,578.5C 282.5,577.5 282.5,576.5 282.5,575.5C 290.491,571.85 298.491,568.184 306.5,564.5 Z"/></g>
<g><path style="opacity:1" fill="#4a373a" d="M 282.5,575.5 C 282.5,576.5 282.5,577.5 282.5,578.5C 280.801,578.34 279.134,578.506 277.5,579C 274.574,583.139 270.574,585.806 265.5,587C 264,587.833 262.833,589 262,590.5C 261.586,590.043 261.086,589.709 260.5,589.5C 257.891,590.23 255.224,590.73 252.5,591C 248.832,596.003 243.832,598.669 237.5,599C 238.167,599.333 238.833,599.667 239.5,600C 232.366,604.239 224.7,606.739 216.5,607.5C 238.316,596.66 260.316,585.994 282.5,575.5 Z"/></g>
</svg>
